<svg xmlns="http://www.w3.org/2000/svg" viewBox="23.027299999999997 50 528.9685672708273 436.58000183105474"> <g transform="rotate(0 287.5115836354137 238.22979701844423)"><svg xmlns="http://www.w3.org/2000/svg" xmlns:xlink="http://www.w3.org/1999/xlink" version="1.1" x="93.0273" y="120" viewBox="92.79399871826172 189.71099853515625 494.4119873046875 300.5780029296875" enable-background="new 0 0 680 680" xml:space="preserve" height="236.4595940368885" width="388.9685672708273" preserveAspectRatio="xMinYMin" style="overflow: visible;"><g id="Grid" style=""></g><g id="Fonts" style=""></g><polygon id="XMLID_00000061436811768490727660000008645728136134490544_" fill="#636363" points="539.585,246.87 570.243,251.08 587.206,275.253 572.171,278.263 500.706,251.08    " style="fill: #252cb0; fill-opacity: 1;"></polygon><polygon id="XMLID_00000061436811768490727660000008645728136134490544_" fill="#E6E8E8" points="587.206,275.253 585.55,305.092 551.387,355.991 572.171,278.263    " style="fill: #e6e7e8;"></polygon><polygon id="XMLID_00000061436811768490727660000008645728136134490544_" fill="#CCCCCC" points="572.171,278.263 551.387,355.991 518.816,332.613    " style="fill: #cccccc;"></polygon><polygon id="XMLID_00000061436811768490727660000008645728136134490544_" fill="#181818" points="572.171,278.263 518.816,332.613 461.95,378.59 500.706,251.08    " style="fill: #4A73E8; fill-opacity: 1;"></polygon><polygon id="XMLID_00000061436811768490727660000008645728136134490544_" fill="#E6E8E8" points="518.816,332.613 551.387,355.991 500.195,404.712    " style="fill: #e6e7e8;"></polygon><polygon id="XMLID_00000061436811768490727660000008645728136134490544_" fill="#565656" points="500.706,251.08 461.95,378.59 353.238,341.211 423.903,295.389    " style="fill: #252cb0; fill-opacity: 1;"></polygon><polygon id="XMLID_00000061436811768490727660000008645728136134490544_" fill="#CCCCCC" points="518.816,332.613 500.195,404.712 425.48,441.427 461.95,378.59    " style="fill: #cccccc;"></polygon><polygon id="XMLID_00000061436811768490727660000008645728136134490544_" fill="#181818" points="500.195,404.712 475.504,465.378 419.222,490.289 425.48,441.427    " style="fill: #4A73E8; fill-opacity: 1;"></polygon><polygon id="XMLID_00000061436811768490727660000008645728136134490544_" fill="#2A2A2A" points="461.95,378.59 425.48,441.427 370.417,408.806    " style="fill: #819EF0; fill-opacity: 1;"></polygon><polygon id="XMLID_00000061436811768490727660000008645728136134490544_" fill="#181818" points="461.95,378.59 370.417,408.806 353.238,341.211    " style="fill: #4A73E8; fill-opacity: 1;"></polygon><polygon id="XMLID_00000061436811768490727660000008645728136134490544_" fill="#181818" points="370.417,408.806 425.48,441.427 373.083,473.713    " style="fill: #4A73E8; fill-opacity: 1;"></polygon><polygon id="XMLID_00000061436811768490727660000008645728136134490544_" fill="#2A2A2A" points="353.238,341.211 370.417,408.806 327.911,410.033    " style="fill: #819EF0; fill-opacity: 1;"></polygon><polygon id="XMLID_00000061436811768490727660000008645728136134490544_" fill="#636363" points="353.238,341.211 327.911,410.033 293.32,353.789    " style="fill: #252cb0; fill-opacity: 1;"></polygon><polygon id="XMLID_00000061436811768490727660000008645728136134490544_" fill="#2A2A2A" points="344.518,447.554 370.417,408.806 373.083,473.713 323.032,471.608    " style="fill: #819EF0; fill-opacity: 1;"></polygon><polygon id="XMLID_00000061436811768490727660000008645728136134490544_" fill="#E6E8E8" points="370.417,408.806 344.518,447.554 327.911,410.033    " style="fill: #e6e7e8;"></polygon><polygon id="XMLID_00000061436811768490727660000008645728136134490544_" fill="#181818" points="233.114,189.711 253.633,236.739 187.887,273.129 211.758,224.032    " style="fill: #4A73E8; fill-opacity: 1;"></polygon><polygon id="XMLID_00000061436811768490727660000008645728136134490544_" fill="#2A2A2A" points="253.633,236.739 247.668,273.953 187.887,273.129    " style="fill: #819EF0; fill-opacity: 1;"></polygon><polygon id="XMLID_00000061436811768490727660000008645728136134490544_" fill="#CCCCCC" points="327.911,410.033 344.518,447.554 292.453,424.506    " style="fill: #cccccc;"></polygon><polygon id="XMLID_00000061436811768490727660000008645728136134490544_" fill="#181818" points="293.32,353.789 327.911,410.033 273.303,396.231    " style="fill: #4A73E8; fill-opacity: 1;"></polygon><polygon id="XMLID_00000061436811768490727660000008645728136134490544_" fill="#E6E8E8" points="327.911,410.033 292.453,424.506 273.303,396.231    " style="fill: #e6e7e8;"></polygon><polygon id="XMLID_00000061436811768490727660000008645728136134490544_" fill="#636363" points="293.32,353.789 273.303,396.231 247.913,337.508    " style="fill: #252cb0; fill-opacity: 1;"></polygon><polygon id="XMLID_00000061436811768490727660000008645728136134490544_" fill="#181818" points="247.668,273.953 228.861,315.011 188.528,296.484 187.887,273.129    " style="fill: #4A73E8; fill-opacity: 1;"></polygon><polygon id="XMLID_00000061436811768490727660000008645728136134490544_" fill="#CCCCCC" points="273.303,396.231 292.453,424.506 254.785,407.842    " style="fill: #cccccc;"></polygon><polygon id="XMLID_00000061436811768490727660000008645728136134490544_" fill="#2A2A2A" points="228.861,315.011 247.913,337.508 196.5,343.278    " style="fill: #819EF0; fill-opacity: 1;"></polygon><polygon id="XMLID_00000061436811768490727660000008645728136134490544_" fill="#181818" points="247.913,337.508 273.303,396.231 196.5,343.278    " style="fill: #4A73E8; fill-opacity: 1;"></polygon><polygon id="XMLID_00000061436811768490727660000008645728136134490544_" fill="#E6E8E8" points="196.5,343.278 273.303,396.231 254.785,407.842    " style="fill: #e6e7e8;"></polygon><polygon id="XMLID_00000061436811768490727660000008645728136134490544_" fill="#434444" points="188.528,296.484 228.861,315.011 196.5,343.278    " style="fill: #252cb0; fill-opacity: 1;"></polygon><polygon id="XMLID_00000061436811768490727660000008645728136134490544_" fill="#181818" points="188.528,296.484 196.5,343.278 129.209,317.29    " style="fill: #4A73E8; fill-opacity: 1;"></polygon><polygon id="XMLID_00000061436811768490727660000008645728136134490544_" fill="#2A2A2A" points="196.5,343.278 164.516,353.205 138.376,359.909 129.209,317.29    " style="fill: #819EF0; fill-opacity: 1;"></polygon><polygon id="XMLID_00000061436811768490727660000008645728136134490544_" fill="#181818" points="129.209,317.29 138.376,359.909 92.794,347.351    " style="fill: #4A73E8; fill-opacity: 1;"></polygon><polyline fill="#2A2A2A" points="518.816,332.613 516.508,330.914 423.903,295.389 425.48,366.051 460.904,378.59   " style="fill: #819EF0; fill-opacity: 1;"></polyline><polygon fill="#11C7F2" points="327.685,412.088 327.409,412.017 273.65,398.431 255.873,409.577 253.698,406.108      272.957,394.032 328.136,407.977 370.059,406.768 460.3,376.979 498.747,250.484 502.665,251.676 463.601,380.202      370.775,410.844 370.476,410.852    " style="fill: #DE3A3A; fill-opacity: 1;"></polygon><circle fill="#D30202" cx="273.303" cy="396.231" r="5.737" style="fill: #000000; fill-opacity: 1;"></circle><circle fill="#D30202" cx="327.911" cy="410.008" r="5.737" style="fill: #000000; fill-opacity: 1;"></circle><circle fill="#D30202" cx="370.417" cy="407.842" r="5.737" style="fill: #000000; fill-opacity: 1;"></circle><circle fill="#D30202" cx="460.904" cy="378.59" r="5.737" style="fill: #000000; fill-opacity: 1;"></circle><circle fill="#D30202" cx="500.706" cy="251.08" r="5.737" style="fill: #000000; fill-opacity: 1;"></circle><circle fill="#D30202" cx="253.65" cy="408.806" r="5.737" style="fill: #000000; fill-opacity: 1;"></circle></svg></g> <g transform="rotate(360 287.49999938964845 391.79000091552734)"><svg xmlns="http://www.w3.org/2000/svg" y="367" viewBox="5.960000038146973 14.069999694824219 374.5299987792969 49.58000183105469" x="100.235" height="49.58000183105469" width="374.5299987792969" style="overflow: visible;"><g fill="#000000" fill-opacity="1" style=""><path d="M22.11 62.98L5.96 62.98L5.96 15.41L22.11 15.41Q29.68 15.41 34.74 18.59Q39.80 21.77 42.34 27.17Q44.89 32.56 44.89 39.13L44.89 39.13Q44.89 46.36 42.11 51.72Q39.33 57.08 34.20 60.03Q29.08 62.98 22.11 62.98L22.11 62.98ZM40.20 39.13L40.20 39.13Q40.20 33.43 38.09 29.01Q35.98 24.59 31.96 22.08Q27.94 19.56 22.11 19.56L22.11 19.56L10.65 19.56L10.65 58.83L22.11 58.83Q28.01 58.83 32.03 56.21Q36.05 53.60 38.12 49.14Q40.20 44.69 40.20 39.13ZM71.15 63.65L71.15 63.65Q67.40 63.65 64.22 62.21Q61.04 60.77 58.73 58.26Q56.41 55.74 55.14 52.49Q53.87 49.25 53.87 45.63L53.87 45.63Q53.87 41.88 55.14 38.63Q56.41 35.38 58.76 32.86Q61.10 30.35 64.29 28.91Q67.47 27.47 71.22 27.47L71.22 27.47Q74.97 27.47 78.12 28.91Q81.27 30.35 83.62 32.86Q85.96 35.38 87.23 38.63Q88.51 41.88 88.51 45.63L88.51 45.63Q88.51 49.25 87.23 52.49Q85.96 55.74 83.65 58.26Q81.34 60.77 78.16 62.21Q74.97 63.65 71.15 63.65ZM58.49 45.69L58.49 45.69Q58.49 49.58 60.20 52.76Q61.91 55.95 64.79 57.79Q67.67 59.63 71.15 59.63L71.15 59.63Q74.64 59.63 77.52 57.75Q80.40 55.88 82.14 52.63Q83.88 49.38 83.88 45.56L83.88 45.56Q83.88 41.67 82.14 38.46Q80.40 35.24 77.52 33.37Q74.64 31.49 71.15 31.49L71.15 31.49Q67.67 31.49 64.82 33.43Q61.98 35.38 60.23 38.56Q58.49 41.74 58.49 45.69ZM114.64 63.65L114.64 63.65Q110.82 63.65 107.64 62.21Q104.45 60.77 102.07 58.22Q99.70 55.68 98.39 52.39Q97.08 49.11 97.08 45.43L97.08 45.43Q97.08 40.47 99.29 36.38Q101.50 32.29 105.46 29.88Q109.41 27.47 114.57 27.47L114.57 27.47Q119.46 27.47 123.21 29.71Q126.97 31.96 128.77 35.78L128.77 35.78L124.35 37.19Q122.88 34.51 120.23 33.00Q117.59 31.49 114.37 31.49L114.37 31.49Q110.89 31.49 108.00 33.30Q105.12 35.11 103.41 38.26Q101.71 41.41 101.71 45.43L101.71 45.43Q101.71 49.38 103.45 52.60Q105.19 55.81 108.07 57.72Q110.95 59.63 114.44 59.63L114.44 59.63Q116.71 59.63 118.82 58.83Q120.94 58.02 122.51 56.65Q124.08 55.28 124.62 53.67L124.62 53.67L129.11 55.01Q128.17 57.49 125.99 59.46Q123.82 61.44 120.90 62.54Q117.99 63.65 114.64 63.65ZM169.51 62.98L164.55 62.98L151.62 45.09L144.18 52.06L144.18 62.98L139.63 62.98L139.63 14.07L144.18 14.07L144.18 47.17L163.95 28.14L168.97 28.14L154.70 42.41L169.51 62.98ZM191.75 63.65L191.75 63.65Q188.00 63.65 184.79 62.21Q181.57 60.77 179.22 58.26Q176.88 55.74 175.57 52.46Q174.27 49.18 174.27 45.43L174.27 45.43Q174.27 40.54 176.51 36.45Q178.76 32.36 182.71 29.92Q186.66 27.47 191.69 27.47L191.69 27.47Q196.85 27.47 200.70 29.95Q204.55 32.43 206.76 36.48Q208.97 40.54 208.97 45.36L208.97 45.36Q208.97 45.90 208.97 46.40Q208.97 46.90 208.91 47.17L208.91 47.17L179.02 47.17Q179.36 50.92 181.13 53.83Q182.91 56.75 185.76 58.46Q188.60 60.17 191.95 60.17L191.95 60.17Q195.37 60.17 198.42 58.42Q201.47 56.68 202.68 53.87L202.68 53.87L206.63 54.94Q205.56 57.42 203.34 59.43Q201.13 61.44 198.15 62.54Q195.17 63.65 191.75 63.65ZM178.89 43.89L178.89 43.89L204.69 43.89Q204.42 40.07 202.64 37.19Q200.87 34.30 198.02 32.66Q195.17 31.02 191.75 31.02L191.75 31.02Q188.34 31.02 185.52 32.66Q182.71 34.30 180.93 37.22Q179.16 40.13 178.89 43.89ZM236.78 27.94L236.78 32.09Q232.22 32.23 228.77 34.64Q225.32 37.05 223.91 41.27L223.91 41.27L223.91 62.98L219.36 62.98L219.36 28.07L223.65 28.07L223.65 36.45Q225.45 32.76 228.44 30.48Q231.42 28.21 234.77 27.94L234.77 27.94Q235.44 27.87 235.94 27.87Q236.44 27.87 236.78 27.94L236.78 27.94ZM241.67 15.41L246.56 15.41L263.58 57.15L280.53 15.41L285.42 15.41L265.72 62.98L261.43 62.98L241.67 15.41ZM299.22 62.98L294.67 62.98L294.67 28.07L299.22 28.07L299.22 62.98ZM299.22 20.77L294.67 20.77L294.67 14.07L299.22 14.07L299.22 20.77ZM309.67 62.98L309.67 59.90L333.06 31.49L310.21 31.49L310.21 28.07L338.22 28.07L338.22 31.16L314.97 59.56L338.15 59.56L338.15 62.98L309.67 62.98ZM363.27 63.65L363.27 63.65Q359.52 63.65 356.31 62.21Q353.09 60.77 350.75 58.26Q348.40 55.74 347.09 52.46Q345.79 49.18 345.79 45.43L345.79 45.43Q345.79 40.54 348.03 36.45Q350.28 32.36 354.23 29.92Q358.18 27.47 363.21 27.47L363.21 27.47Q368.37 27.47 372.22 29.95Q376.07 32.43 378.28 36.48Q380.49 40.54 380.49 45.36L380.49 45.36Q380.49 45.90 380.49 46.40Q380.49 46.90 380.43 47.17L380.43 47.17L350.54 47.17Q350.88 50.92 352.65 53.83Q354.43 56.75 357.28 58.46Q360.13 60.17 363.48 60.17L363.48 60.17Q366.89 60.17 369.94 58.42Q372.99 56.68 374.20 53.87L374.20 53.87L378.15 54.94Q377.08 57.42 374.87 59.43Q372.65 61.44 369.67 62.54Q366.69 63.65 363.27 63.65ZM350.41 43.89L350.41 43.89L376.21 43.89Q375.94 40.07 374.16 37.19Q372.39 34.30 369.54 32.66Q366.69 31.02 363.27 31.02L363.27 31.02Q359.86 31.02 357.04 32.66Q354.23 34.30 352.45 37.22Q350.68 40.13 350.41 43.89Z" transform="translate(0, 0)"></path></g></svg></g></svg>